<svg xmlns="http://www.w3.org/2000/svg" width="60" height="48" viewBox="0 0 60 48" fill="currentColor">
  <path d="M24.9 0C15.9 3.6 9.3 9.3 5.1 17.1C1.8 23.1 0 29.7 0 36.9C0 43.5 3.6 48 10.2 48C15.6 48 19.8 44.4 19.8 39C19.8 33.9 16.2 30.6 11.4 30.6C10.2 30.6 9.3 30.9 8.1 31.2C8.7 25.8 12 20.1 18 15.6L24.9 10.8V0Z"/>
  <path d="M59.7 0C50.7 3.6 44.1 9.3 39.9 17.1C36.6 23.1 34.8 29.7 34.8 36.9C34.8 43.5 38.4 48 45 48C50.4 48 54.6 44.4 54.6 39C54.6 33.9 51 30.6 46.2 30.6C45 30.6 44.1 30.9 42.9 31.2C43.5 25.8 46.8 20.1 52.8 15.6L59.7 10.8V0Z"/>
</svg>

